<?xml version="1.0" encoding="utf-8"?>
<!-- Generator: Adobe Illustrator 24.0.0, SVG Export Plug-In . SVG Version: 6.00 Build 0)  -->
<svg version="1.1" id="Capa_1" xmlns="http://www.w3.org/2000/svg" xmlns:xlink="http://www.w3.org/1999/xlink" x="0px" y="0px"
	 viewBox="0 0 473 114" style="enable-background:new 0 0 473 114;" xml:space="preserve">
<path d="M106.11,30.46c-1.85,0.82-3.77,1.47-5.73,1.93c2.17-2.06,3.8-4.64,4.72-7.52c0.26-0.82-0.63-1.53-1.37-1.09
	c-2.74,1.62-5.69,2.84-8.77,3.62c-0.18,0.05-0.36,0.07-0.55,0.07c-0.56,0-1.11-0.21-1.54-0.59c-3.28-2.89-7.49-4.48-11.86-4.48
	c-1.89,0-3.8,0.3-5.68,0.88c-5.81,1.8-10.3,6.6-11.71,12.52c-0.53,2.22-0.67,4.44-0.42,6.6c0.03,0.25-0.09,0.42-0.16,0.5
	c-0.13,0.14-0.31,0.22-0.5,0.22c-0.02,0-0.04,0-0.06,0c-12.73-1.18-24.2-7.31-32.31-17.26c-0.41-0.51-1.21-0.45-1.54,0.12
	c-1.59,2.73-2.43,5.84-2.43,9.01c0,4.86,1.95,9.44,5.35,12.78c-1.43-0.34-2.81-0.87-4.09-1.58c-0.62-0.34-1.38,0.1-1.39,0.81
	c-0.09,7.22,4.14,13.65,10.47,16.54c-0.13,0-0.26,0-0.38,0c-1,0-2.02-0.1-3.02-0.29c-0.7-0.13-1.29,0.53-1.07,1.21
	c2.06,6.42,7.58,11.15,14.19,12.22c-5.49,3.68-11.88,5.63-18.53,5.63l-2.07,0c-0.64,0-1.18,0.42-1.34,1.04
	c-0.16,0.61,0.13,1.25,0.68,1.57c7.49,4.36,16.05,6.67,24.73,6.67c7.6,0,14.71-1.51,21.13-4.48c5.89-2.73,11.09-6.62,15.46-11.59
	c4.07-4.62,7.26-9.96,9.47-15.86c2.1-5.62,3.22-11.63,3.22-17.35v-0.27c0-0.92,0.42-1.79,1.14-2.38c2.75-2.24,5.15-4.87,7.13-7.82
	C107.79,31.06,106.96,30.08,106.11,30.46L106.11,30.46z M106.11,30.46"/>
<g>
	<path d="M381.18,21.39c-18.83,0.9-33.69,16.58-33.64,35.43c0.02,5.74,1.4,11.16,3.85,15.95L347.63,91
		c-0.2,0.99,0.69,1.85,1.67,1.62l17.86-4.23c4.59,2.29,9.74,3.61,15.2,3.69c19.25,0.29,35.3-14.99,35.9-34.23
		C418.9,37.22,401.87,20.4,381.18,21.39L381.18,21.39z M402.49,76.29c-5.23,5.23-12.18,8.11-19.58,8.11
		c-4.33,0-8.48-0.97-12.32-2.89l-2.49-1.24l-10.95,2.59l2.3-11.19l-1.22-2.4c-2-3.91-3.01-8.14-3.01-12.57
		c0-7.4,2.88-14.35,8.11-19.58c5.18-5.18,12.25-8.11,19.58-8.11c7.4,0,14.35,2.88,19.58,8.11c5.23,5.23,8.11,12.18,8.11,19.58
		C410.6,64.04,407.67,71.11,402.49,76.29L402.49,76.29z M402.49,76.29"/>
	<path d="M400.07,64.38l-6.85-1.97c-0.9-0.26-1.87,0-2.53,0.67l-1.68,1.71c-0.71,0.72-1.78,0.95-2.71,0.57
		c-3.24-1.31-10.06-7.37-11.8-10.4c-0.5-0.87-0.42-1.97,0.2-2.77l1.46-1.89c0.57-0.74,0.69-1.74,0.31-2.59l-2.88-6.52
		c-0.69-1.56-2.69-2.02-3.99-0.91c-1.91,1.62-4.18,4.07-4.46,6.8c-0.49,4.8,1.57,10.85,9.36,18.12c8.99,8.39,16.19,9.5,20.88,8.37
		c2.66-0.64,4.78-3.23,6.13-5.34C402.43,66.77,401.71,64.85,400.07,64.38L400.07,64.38z M400.07,64.38"/>
</g>
<g>
	<path d="M188.69,18.36h-31.24c-12.69,0-23.02,10.33-23.02,23.02v31.24c0,12.69,10.33,23.02,23.02,23.02h31.24
		c12.69,0,23.02-10.33,23.02-23.02V41.38C211.71,28.69,201.38,18.36,188.69,18.36L188.69,18.36z M203.93,72.62
		c0,8.42-6.83,15.25-15.25,15.25h-31.24c-8.42,0-15.25-6.83-15.25-15.25V41.38c0-8.42,6.83-15.25,15.25-15.25h31.24
		c8.42,0,15.25,6.83,15.25,15.25V72.62z M203.93,72.62"/>
	<path d="M173.07,37.01c-11.02,0-19.99,8.97-19.99,19.99c0,11.02,8.97,19.99,19.99,19.99c11.02,0,19.99-8.97,19.99-19.99
		S184.09,37.01,173.07,37.01L173.07,37.01z M173.07,69.21c-6.75,0-12.21-5.47-12.21-12.21c0-6.75,5.47-12.21,12.21-12.21
		c6.75,0,12.21,5.47,12.21,12.21C185.28,63.75,179.81,69.21,173.07,69.21L173.07,69.21z M173.07,69.21"/>
	<path d="M197.88,37.16c0,2.64-2.14,4.79-4.79,4.79c-2.65,0-4.79-2.14-4.79-4.79c0-2.65,2.14-4.79,4.79-4.79
		C195.74,32.37,197.88,34.52,197.88,37.16L197.88,37.16z M197.88,37.16"/>
</g>
<g>
	<path d="M307.72,20.59h-53.2c-5.42,0-9.81,4.39-9.81,9.81v53.2c0,5.42,4.39,9.81,9.81,9.81h26.24l0.05-26.02h-6.76
		c-0.88,0-1.59-0.71-1.59-1.59l-0.03-8.39c0-0.88,0.71-1.6,1.6-1.6h6.75V47.7c0-9.41,5.74-14.53,14.14-14.53h6.89
		c0.88,0,1.6,0.71,1.6,1.6v7.07c0,0.88-0.71,1.6-1.59,1.6l-4.23,0c-4.56,0-5.45,2.17-5.45,5.35v7.02h10.03
		c0.96,0,1.7,0.83,1.58,1.78l-0.99,8.39c-0.09,0.8-0.78,1.41-1.58,1.41h-8.99l-0.05,26.03h15.61c5.42,0,9.81-4.39,9.81-9.81V30.4
		C317.54,24.98,313.14,20.59,307.72,20.59L307.72,20.59z M307.72,20.59"/>
</g>
<rect x="448" y="11" width="10" height="92"/>
</svg>
